<svg width="46" height="37" viewBox="0 0 46 37" fill="none" xmlns="http://www.w3.org/2000/svg">
<path fill-rule="evenodd" clip-rule="evenodd" d="M16.4354 0.0125001C17.682 0.0777406 18.9016 0.401018 20.0168 0.961878C21.1321 1.52274 22.1188 2.30897 22.9146 3.27083C23.7605 2.2483 24.8215 1.42499 26.0222 0.859612C27.2228 0.294237 28.5333 0.000723552 29.8604 0H43.75C44.3025 0 44.8324 0.219493 45.2231 0.610194C45.6138 1.00089 45.8333 1.5308 45.8333 2.08333V27.0854C45.8333 27.6379 45.6138 28.1679 45.2231 28.5586C44.8324 28.9493 44.3025 29.1687 43.75 29.1687L29.8604 29.1667C28.4896 29.1667 27.6 29.5042 27.0021 29.9042C26.4194 30.3038 25.9523 30.8499 25.6479 31.4875C25.2614 32.2789 25.041 33.141 25 34.0208V34.0396L24.9896 34.2417C24.938 34.7556 24.6973 35.232 24.3143 35.5785C23.9313 35.9251 23.4332 36.1169 22.9167 36.1169C22.4001 36.1169 21.902 35.9251 21.519 35.5785C21.136 35.232 20.8953 34.7556 20.8437 34.2417L20.8333 34.0292V34.0187L20.825 33.8771C20.7701 33.0442 20.5543 32.2299 20.1896 31.4792C19.8934 30.8425 19.4333 30.296 18.8562 29.8958C18.2729 29.5 17.4021 29.1667 16.0583 29.1667H2.08332C1.53078 29.1667 1.00088 28.9472 0.610179 28.5565C0.219478 28.1658 -1.52588e-05 27.6359 -1.52588e-05 27.0833V2.08333C-1.52588e-05 1.5308 0.219478 1.00089 0.610179 0.610194C1.00088 0.219493 1.53078 0 2.08332 0H15.9729L16.4354 0.0125001ZM20.8333 4.16667V29.8625H25V4.16667H20.8333Z" fill="white"/>
</svg>
