<svg width="42" height="38" viewBox="0 0 42 38" fill="none" xmlns="http://www.w3.org/2000/svg">
<path d="M6.25 12.5C5.69747 12.5 5.16756 12.7195 4.77686 13.1102C4.38616 13.5009 4.16667 14.0308 4.16667 14.5833V31.25C4.16667 31.8025 4.38616 32.3324 4.77686 32.7231C5.16756 33.1138 5.69747 33.3333 6.25 33.3333H35.4167C35.9692 33.3333 36.4991 33.1138 36.8898 32.7231C37.2805 32.3324 37.5 31.8025 37.5 31.25V14.5833C37.5 14.0308 37.2805 13.5009 36.8898 13.1102C36.4991 12.7195 35.9692 12.5 35.4167 12.5H6.25ZM10.4167 8.33333V6.25C10.4167 4.5924 11.0751 3.00268 12.2473 1.83058C13.4194 0.65848 15.0091 0 16.6667 0L25 0C26.6576 0 28.2473 0.65848 29.4194 1.83058C30.5915 3.00268 31.25 4.5924 31.25 6.25V8.33333H35.4167C37.0743 8.33333 38.664 8.99181 39.8361 10.1639C41.0082 11.336 41.6667 12.9257 41.6667 14.5833V31.25C41.6667 32.9076 41.0082 34.4973 39.8361 35.6694C38.664 36.8415 37.0743 37.5 35.4167 37.5H6.25C4.5924 37.5 3.00269 36.8415 1.83058 35.6694C0.65848 34.4973 0 32.9076 0 31.25L0 14.5833C0 12.9257 0.65848 11.336 1.83058 10.1639C3.00269 8.99181 4.5924 8.33333 6.25 8.33333H10.4167ZM14.5833 8.33333H27.0833V6.25C27.0833 5.69747 26.8638 5.16756 26.4731 4.77686C26.0824 4.38616 25.5525 4.16667 25 4.16667H16.6667C16.1141 4.16667 15.5842 4.38616 15.1935 4.77686C14.8028 5.16756 14.5833 5.69747 14.5833 6.25V8.33333ZM18.75 16.6667H22.9167V29.1667H18.75V16.6667ZM14.5833 20.8333H27.0833V25H14.5833V20.8333Z" fill="white"/>
</svg>
