<svg width="28" height="24" viewBox="0 0 28 24" fill="none" xmlns="http://www.w3.org/2000/svg">
<path fill-rule="evenodd" clip-rule="evenodd" d="M2.22192 2.20989C3.64269 0.794897 5.56942 0 7.5784 0C9.58737 0 11.5141 0.794897 12.9349 2.20989C13.2127 2.48563 13.5703 2.8288 14.0077 3.2394C14.4441 2.8288 14.8012 2.48563 15.079 2.20989C16.4938 0.807014 18.4072 0.0170826 20.4034 0.0117567C22.3995 0.00643075 24.3171 0.786141 25.7395 2.18144C27.1618 3.57675 27.974 5.47489 27.9994 7.46337C28.0248 9.45185 27.2615 11.37 25.8753 12.8009L15.0775 23.558C14.7933 23.841 14.408 24 14.0062 24C13.6044 24 13.219 23.841 12.9349 23.558L2.13706 12.8024C0.75217 11.3795 -0.0153601 9.47105 0.000233025 7.48915C0.0158262 5.50725 0.814806 3.61099 2.22192 2.20989Z" fill="white"/>
</svg>
