<svg width="50" height="55" viewBox="0 0 50 55" fill="none" xmlns="http://www.w3.org/2000/svg">
<path d="M13.6364 43.5417C13.6364 44.1623 13.4115 44.6994 12.9616 45.153C12.5118 45.6066 11.9792 45.8333 11.3636 45.8333C10.7481 45.8333 10.2154 45.6066 9.76562 45.153C9.31581 44.6994 9.09091 44.1623 9.09091 43.5417C9.09091 42.921 9.31581 42.3839 9.76562 41.9303C10.2154 41.4768 10.7481 41.25 11.3636 41.25C11.9792 41.25 12.5118 41.4768 12.9616 41.9303C13.4115 42.3839 13.6364 42.921 13.6364 43.5417ZM50 45.7259C50 48.6144 49.1359 50.8822 47.4077 52.5293C45.6795 54.1764 43.383 55 40.5185 55H9.48153C6.61695 55 4.32055 54.1764 2.59233 52.5293C0.86411 50.8822 0 48.6144 0 45.7259C0 44.1026 0.0651042 42.5391 0.195312 41.0352C0.325521 39.5312 0.609612 37.8841 1.04759 36.0938C1.48556 34.3034 2.04782 32.7219 2.73438 31.3493C3.42093 29.9767 4.37973 28.7473 5.6108 27.6611C6.84186 26.575 8.26231 25.8529 9.87216 25.4948C9.35133 26.7361 9.09091 28.1684 9.09091 29.7917V37.0605C7.7178 37.538 6.61695 38.3735 5.78835 39.5671C4.95975 40.7606 4.54545 42.0855 4.54545 43.5417C4.54545 45.4514 5.20833 47.0747 6.53409 48.4115C7.85985 49.7483 9.4697 50.4167 11.3636 50.4167C13.2576 50.4167 14.8674 49.7483 16.1932 48.4115C17.5189 47.0747 18.1818 45.4514 18.1818 43.5417C18.1818 42.0855 17.7616 40.7606 16.9212 39.5671C16.0807 38.3735 14.9858 37.538 13.6364 37.0605V29.7917C13.6364 28.3116 13.9323 27.2016 14.5241 26.4616C17.6491 28.9442 21.1411 30.1855 25 30.1855C28.8589 30.1855 32.3509 28.9442 35.4759 26.4616C36.0677 27.2016 36.3636 28.3116 36.3636 29.7917V32.0833C33.8542 32.0833 31.7116 32.9785 29.9361 34.7689C28.1605 36.5592 27.2727 38.7196 27.2727 41.25V44.4369C26.5152 45.1291 26.1364 45.9766 26.1364 46.9792C26.1364 47.934 26.4678 48.7457 27.1307 49.4141C27.7936 50.0825 28.5985 50.4167 29.5455 50.4167C30.4924 50.4167 31.2973 50.0825 31.9602 49.4141C32.6231 48.7457 32.9545 47.934 32.9545 46.9792C32.9545 45.9766 32.5758 45.1291 31.8182 44.4369V41.25C31.8182 40.0087 32.268 38.9345 33.1676 38.0273C34.0672 37.1202 35.1326 36.6667 36.3636 36.6667C37.5947 36.6667 38.66 37.1202 39.5597 38.0273C40.4593 38.9345 40.9091 40.0087 40.9091 41.25V44.4369C40.1515 45.1291 39.7727 45.9766 39.7727 46.9792C39.7727 47.934 40.1042 48.7457 40.767 49.4141C41.4299 50.0825 42.2348 50.4167 43.1818 50.4167C44.1288 50.4167 44.9337 50.0825 45.5966 49.4141C46.2595 48.7457 46.5909 47.934 46.5909 46.9792C46.5909 45.9766 46.2121 45.1291 45.4545 44.4369V41.25C45.4545 39.6267 45.0462 38.1049 44.2294 36.6846C43.4126 35.2642 42.3059 34.1482 40.9091 33.3366C40.9091 33.0979 40.915 32.5906 40.9268 31.8148C40.9387 31.039 40.9387 30.466 40.9268 30.096C40.915 29.726 40.8854 29.2307 40.8381 28.61C40.7907 27.9894 40.7079 27.4284 40.5895 26.9271C40.4711 26.4258 40.3172 25.9484 40.1278 25.4948C41.7377 25.8529 43.1581 26.575 44.3892 27.6611C45.6203 28.7473 46.5791 29.9767 47.2656 31.3493C47.9522 32.7219 48.5144 34.3034 48.9524 36.0938C49.3904 37.8841 49.6745 39.5312 49.8047 41.0352C49.9349 42.5391 50 44.1026 50 45.7259ZM38.6364 13.75C38.6364 17.5456 37.3047 20.7861 34.6413 23.4717C31.978 26.1572 28.7642 27.5 25 27.5C21.2358 27.5 18.022 26.1572 15.3587 23.4717C12.6953 20.7861 11.3636 17.5456 11.3636 13.75C11.3636 9.95443 12.6953 6.71387 15.3587 4.02832C18.022 1.34277 21.2358 0 25 0C28.7642 0 31.978 1.34277 34.6413 4.02832C37.3047 6.71387 38.6364 9.95443 38.6364 13.75Z" fill="white"/>
</svg>
