<svg width="30" height="30" viewBox="0 0 30 30" fill="none" xmlns="http://www.w3.org/2000/svg">
<path d="M15 0C13.0302 0 11.0796 0.387987 9.25975 1.14181C7.43986 1.89563 5.78628 3.00052 4.3934 4.3934C1.58035 7.20644 0 11.0218 0 15C0 18.9782 1.58035 22.7936 4.3934 25.6066C5.78628 26.9995 7.43986 28.1044 9.25975 28.8582C11.0796 29.612 13.0302 30 15 30C18.9782 30 22.7936 28.4196 25.6066 25.6066C28.4196 22.7936 30 18.9782 30 15C30 13.26 29.685 11.535 29.085 9.915L26.685 12.315C26.895 13.2 27 14.1 27 15C27 18.1826 25.7357 21.2348 23.4853 23.4853C21.2348 25.7357 18.1826 27 15 27C11.8174 27 8.76516 25.7357 6.51472 23.4853C4.26428 21.2348 3 18.1826 3 15C3 11.8174 4.26428 8.76516 6.51472 6.51472C8.76516 4.26428 11.8174 3 15 3C15.9 3 16.8 3.105 17.685 3.315L20.1 0.9C18.465 0.315 16.74 0 15 0ZM25.5 0L19.5 6V8.25L15.675 12.075C15.45 12 15.225 12 15 12C14.2044 12 13.4413 12.3161 12.8787 12.8787C12.3161 13.4413 12 14.2044 12 15C12 15.7956 12.3161 16.5587 12.8787 17.1213C13.4413 17.6839 14.2044 18 15 18C15.7956 18 16.5587 17.6839 17.1213 17.1213C17.6839 16.5587 18 15.7956 18 15C18 14.775 18 14.55 17.925 14.325L21.75 10.5H24L30 4.5H25.5V0ZM15 6C12.6131 6 10.3239 6.94821 8.63604 8.63604C6.94821 10.3239 6 12.6131 6 15C6 17.3869 6.94821 19.6761 8.63604 21.364C10.3239 23.0518 12.6131 24 15 24C17.3869 24 19.6761 23.0518 21.364 21.364C23.0518 19.6761 24 17.3869 24 15H21C21 16.5913 20.3679 18.1174 19.2426 19.2426C18.1174 20.3679 16.5913 21 15 21C13.4087 21 11.8826 20.3679 10.7574 19.2426C9.63214 18.1174 9 16.5913 9 15C9 13.4087 9.63214 11.8826 10.7574 10.7574C11.8826 9.63214 13.4087 9 15 9V6Z" fill="#2E7D32"/>
</svg>
